PathFileType	4	(X/Y/Z)	C:\Users\WrightLab\Desktop\Jo\P3_19.trc
DataRate	CameraRate	NumFrames	NumMarkers	Units	OrigDataRate	OrigDataStartFrame	OrigNumFrames
100.00	100.00	       11	19	mm	100.00	183	       731
Frame#	Time	Headset_Front			Headset_Back			Headset_Left			Headset_Right			Left_Shoulder			Right_Shoulder			Sternum			C7			Left Elbow			Right Elbow			Left Wrist			Right Wrist			Left ASIS			Right ASIS			S2			Left Knee			Right Knee			Left Ankle			Right Ankle			
		X1	Y1	Z1	X2	Y2	Z2	X3	Y3	Z3	X4	Y4	Z4	X5	Y5	Z5	X6	Y6	Z6	X7	Y7	Z7	X8	Y8	Z8	X9	Y9	Z9	X10	Y10	Z10	X11	Y11	Z11	X12	Y12	Z12	X13	Y13	Z13	X14	Y14	Z14	X15	Y15	Z15	X16	Y16	Z16	X17	Y17	Z17	X18	Y18	Z18	X19	Y19	Z19	

183	1.820	-665.05609	1458.35132	-377.31824	-740.38458	1573.73035	-646.98566	-608.35883	1509.97620	-570.27557	-793.42194	1506.98303	-442.71396	-565.45221	1296.61426	-609.30536	-923.74982	1312.05945	-598.27185	-739.21527	1184.85535	-474.75314	-752.26550	1358.68457	-652.00702	-500.16333	962.42041	-617.31653	-1019.22595	970.02747	-605.65845	-501.76016	786.76489	-504.68152	-1009.99878	788.51544	-465.57086	-637.14886	823.18634	-503.44910	-891.82062	837.31305	-501.22043	-764.33179	903.58203	-713.72351	-613.40784	397.59613	-571.72144	-917.53516	431.26251	-433.70676	-593.73376	160.40788	-813.05475	-932.50165	92.13543	-427.13782	
184	1.830	-666.85614	1458.88586	-367.80521	-743.23804	1574.88062	-638.15533	-610.83484	1511.17590	-562.13293	-795.05823	1508.53992	-433.79346	-568.36139	1299.22021	-602.58307	-925.91461	1313.78052	-587.90326	-739.07452	1186.29309	-463.46338	-755.24323	1360.34363	-643.00922	-503.99280	964.76050	-611.99396	-1021.96503	972.31335	-592.99670	-505.33936	788.20282	-501.02124	-1012.00647	790.03412	-453.80057	-638.50385	824.38757	-495.17493	-892.89166	839.08673	-495.81674	-767.02948	906.63129	-705.39044	-616.58801	398.63153	-553.34113	-920.07654	431.64426	-430.12265	-597.61469	167.58569	-800.29291	-932.91937	92.06577	-426.84882	
185	1.840	-666.24762	1460.24683	-360.15649	-745.89825	1576.14307	-629.78143	-612.80310	1512.51941	-555.45129	-794.84607	1509.76355	-424.11313	-570.46021	1301.81165	-596.18854	-928.28290	1315.54175	-577.37231	-740.87067	1188.25549	-454.85004	-758.07147	1361.89722	-634.10632	-508.06265	966.40332	-607.84985	-1024.40271	974.10193	-580.23413	-508.69965	789.64386	-497.17807	-1013.24994	792.65039	-440.74396	-641.09497	826.03314	-487.91635	-894.69232	843.14124	-486.74637	-769.05487	908.56921	-697.77039	-619.87561	399.53534	-533.93066	-922.53210	431.27625	-426.60178	-602.73541	175.61031	-787.59546	-933.43188	91.76460	-426.11612	
186	1.850	-668.22742	1461.67175	-351.71619	-748.44092	1577.23938	-620.94110	-614.12305	1513.38269	-547.66284	-796.36090	1511.96912	-415.89612	-573.24414	1303.74622	-588.97540	-930.00537	1316.91418	-567.72205	-741.03516	1189.76868	-447.82666	-760.88074	1363.15234	-625.42963	-511.45914	968.47333	-603.17291	-1026.90771	975.50110	-567.43878	-510.73828	790.86401	-493.18161	-1014.72217	794.71570	-428.13828	-641.96289	827.85077	-479.68964	-896.41022	844.52893	-476.78732	-770.89484	909.96362	-689.19617	-622.88458	400.77850	-515.82983	-922.66718	430.78833	-421.99600	-606.02606	184.21049	-771.92072	-933.70599	91.51738	-425.17096	
187	1.860	-667.50500	1463.45117	-344.87402	-750.75525	1578.68726	-612.94196	-616.54199	1515.14429	-540.19031	-796.49451	1512.16760	-406.30521	-574.95496	1305.64380	-582.13434	-932.06927	1318.55261	-558.01868	-741.18030	1191.08789	-440.01956	-763.36200	1364.79065	-616.82056	-514.71539	970.89661	-599.18353	-1029.45447	977.34790	-555.40393	-513.21503	792.53729	-489.17960	-1014.38153	796.01874	-414.21350	-643.53735	829.31708	-473.83582				-772.51447	911.01953	-682.87634	-625.30432	403.33533	-496.39432	-923.56195	430.68506	-417.84283	-611.71985	191.09055	-757.76727	-933.71661	91.48150	-424.89325	
188	1.870	-668.59900	1464.74292	-336.27887	-752.96576	1579.88171	-604.11914	-617.84216	1516.00610	-531.43738	-797.10974	1513.65918	-397.69510	-576.74988	1307.79443	-575.65833	-933.61530	1319.67407	-547.72986	-741.76953	1193.06946	-432.71213	-765.67822	1366.36157	-608.34338	-517.57135	972.32062	-593.54120	-1031.96399	978.99701	-543.15936	-515.92316	793.70618	-486.43909	-1016.57794	797.38336	-402.48651	-642.62402	832.08893	-463.55624				-774.13678	911.40326	-674.21295	-628.21619	404.98038	-478.86084	-923.36072	430.25003	-412.96313	-616.45294	197.90489	-743.90814	-933.72516	91.08101	-423.92728	
189	1.880	-667.37445	1466.41638	-328.41623	-754.87024	1581.36084	-595.90851	-619.29736	1517.60083	-526.79126	-798.77045	1515.18140	-389.08807	-578.49249	1309.39172	-569.58136	-935.23163	1320.67273	-538.17920	-742.59796	1194.27979	-424.09137	-767.87128	1367.97705	-600.47418	-520.68610	973.71515	-588.35522	-1034.20593	979.87695	-530.23645	-517.96167	794.34497	-482.47601	-1017.02344	800.21576	-389.76596	-643.94434	833.70099	-457.13058	-900.85358	847.66510	-455.52026	-776.00049	912.93561	-666.86554	-630.81653	408.99939	-461.06699	-923.85028	429.93723	-409.49051	-622.40143	204.99260	-729.02820	-933.17590	87.56879	-428.76715	
190	1.890	-666.27258	1467.63440	-321.82474	-756.71411	1582.45544	-587.51550	-620.39764	1518.94141	-520.14105	-797.84503	1516.07800	-380.66406	-580.13171	1310.91028	-563.78180	-936.51093	1321.61536	-528.05591	-742.58508	1195.00696	-416.18280	-769.92999	1369.20996	-591.96619	-522.83826	974.63025	-583.11993	-1036.52014	980.81091	-517.56891	-520.33075	795.05847	-477.74863	-1017.99329	802.07684	-375.67874	-645.82239	835.19415	-450.64487	-901.39038	847.86206	-446.33167	-778.07184	913.55756	-657.82721	-633.59991	411.39835	-444.60712	-923.94464	430.24539	-405.65973	-629.22437	211.09550	-713.52582	-932.86365	87.83874	-427.77646	
191	1.900	-667.70270	1468.57178	-315.32837	-758.34143	1583.66748	-579.13531	-621.53400	1520.01025	-512.04755	-799.44135	1517.41626	-372.65314	-581.61145	1312.17627	-557.73090	-937.94751	1322.08032	-518.53467	-743.67303	1196.03577	-409.19727	-771.95551	1370.36987	-583.61224	-525.14655	975.70947	-578.88495	-1038.71777	982.35254	-505.68945	-522.22095	796.07526	-473.44269	-1017.85272	803.23834	-363.68845	-647.83368	835.96899	-443.96616	-901.33063	848.60266	-435.34601	-779.52972	914.90216	-651.43951	-633.66016	415.38455	-428.16806	-923.70294	429.69809	-401.83752	-634.90344	216.40034	-698.99823	-932.95660	91.20261	-421.22620	
192	1.910	-667.35681	1469.03760	-305.93845	-759.83411	1584.83423	-571.06866	-623.02148	1520.90894	-505.22272	-798.62164	1518.17480	-363.53479	-583.40894	1313.37756	-551.42133	-939.23523	1323.28760	-509.14700	-742.66589	1197.50635	-402.44510	-773.76764	1371.56238	-575.91333	-526.76392	977.00983	-573.83307	-1040.56335	983.19940	-492.69846	-524.07837	796.63629	-469.48633	-1018.41675	805.15564	-351.03992	-647.60809	837.67834	-436.84113				-782.06970	916.99908	-643.20184	-635.34839	418.66589	-412.63776	-923.27271	430.05615	-397.83414	-641.43011	220.14850	-682.79169	-932.68079	91.39317	-420.60065	
193	1.920				-761.08472	1586.00525	-563.15472	-623.69946	1521.97925	-498.90491	-799.46692	1519.16699	-355.27032	-585.10492	1314.32910	-544.99432	-940.02954	1324.20691	-499.75021	-741.82581	1197.60706	-395.03589	-775.40710	1372.92773	-568.05280	-528.85883	977.94287	-569.30750	-1042.38599	984.01312	-480.70117	-525.72583	796.93195	-464.96558	-1018.59082	807.28876	-337.97021	-647.99121	839.21838	-430.71869				-783.66797	918.51770	-635.60229	-636.52081	422.41238	-396.00046	-922.91187	430.01956	-394.16125	-646.84045	222.83070	-665.91577	-932.41290	91.67471	-419.98151	
